<svg xmlns="http://www.w3.org/2000/svg" width="543.452" height="450.841" viewBox="0 0 543.452 450.841">
  <g id="Grupo_21474" data-name="Grupo 21474" transform="translate(2318.253 5595.821)">
    <g id="Grupo_9609" data-name="Grupo 9609">
      <path id="Trazado_25713" data-name="Trazado 25713" d="M-2221.169-5367.553c25.374,96.423,203.2,245.69,302.542,219.549s82.584-217.794,57.209-314.216-126.475-153.4-225.817-127.253S-2246.542-5463.975-2221.169-5367.553Z" fill="#fefefe" opacity="0.34" style="isolation: isolate"/>
      <path id="Trazado_25714" data-name="Trazado 25714" d="M-2232.2-5201.812c35.155,52.295,156.973,52.089,252.621,20.552s239.471-129.067,197.185-257.315c-16.46-49.921-85.31-133.219-278.448-40.652C-2168.037-5427.85-2280.763-5274.049-2232.2-5201.812Z" fill="#cfeef6" opacity="0.28" style="isolation: isolate"/>
      <path id="Trazado_25715" data-name="Trazado 25715" d="M-2303.667-5361.221c15.547,98.159,209.207,177.389,306.673,161.951s185.2-139.235,169.657-237.394-67.195-158.116-199.336-60.9C-2106.278-5438.99-2319.214-5459.38-2303.667-5361.221Z" fill="#fefefe" opacity="0.26" style="isolation: isolate"/>
      <path id="Trazado_25716" data-name="Trazado 25716" d="M-2256.448-5245.471c3.95-11.308-10.5-40.484-27.333-46.366s-29.687,13.756-33.637,25.064,6.494,25.243,23.331,31.124S-2260.4-5234.165-2256.448-5245.471Z" fill="#fefefe" opacity="0.26" style="isolation: isolate"/>
      <path id="Trazado_25717" data-name="Trazado 25717" d="M-1889.446-5572.759c-2.448,7.026,8.239,25.738,20.007,29.843s20.157-7.957,22.606-14.982-5.1-16.047-16.871-20.151S-1887-5579.784-1889.446-5572.759Z" fill="#fefefe" opacity="0.26" style="isolation: isolate"/>
    </g>
    <g id="CONTENIDO">
      <g id="Grupo_9651" data-name="Grupo 9651">
        <path id="Trazado_25718" data-name="Trazado 25718" d="M-1875.211-5477.254c4.164.078,8.467.131,12.312-1.469,4.109-1.709,7.52-5.732,7.306-10.177s-5.1-8.39-9.226-6.716c-2.865,1.163-4.38,4.37-4.816,7.432a6.646,6.646,0,0,0-6.99-4.338,6.645,6.645,0,0,0-5.544,6.077,5.428,5.428,0,0,0-5.5-3.874,5.428,5.428,0,0,0-4.81,4.7c-.918-3.576-1.926-7.319-4.469-9.995s-7.143-3.784-9.933-1.367c-3.186,2.761-2.193,7.848-.931,11.87a7.319,7.319,0,0,0-3.877,1.563,3.373,3.373,0,0,0-.976,3.827,4.086,4.086,0,0,0,3.653,1.858C-1897.773-5477.5-1886.47-5477.466-1875.211-5477.254Z" fill="#fff" opacity="0.7"/>
        <path id="Trazado_25719" data-name="Trazado 25719" d="M-2177.519-5499.251a55.136,55.136,0,0,0,12.024-1.008c3.241-.759,6.9-2.946,6.674-6.267-.169-2.49-2.77-4.354-5.263-4.24a7.881,7.881,0,0,0-6.025,3.935c-.6-2.759-1.84-5.662-4.365-6.927s-6.382.3-6.318,3.127c-1.382-2.893-2.832-5.877-5.276-7.952a10.7,10.7,0,0,0-12.283-1.1c-3.718,2.353-5.369,7.651-3.313,11.541a8.489,8.489,0,0,0-7.493-.055,6.2,6.2,0,0,0-3.273,6.461c1.258,6.008,9.313,2.748,13.351,2.706Z" fill="#fff" opacity="0.7"/>
        <path id="Trazado_25720" data-name="Trazado 25720" d="M-1988.568-5484.158a4.851,4.851,0,0,0,3.169-.738c.975-.807,1.155-2.209,1.266-3.47a4.162,4.162,0,0,0-.281-2.44,3.727,3.727,0,0,0-2.232-1.464,7.921,7.921,0,0,0-4.928-.224,3.868,3.868,0,0,0-2.733,3.764,4.113,4.113,0,0,0-3.489-2.5,4.112,4.112,0,0,0-3.754,2.077,12.992,12.992,0,0,0-15.639-7.653,6.641,6.641,0,0,0-3.647,2.51,3.478,3.478,0,0,0,.184,4.181c.573.592,1.439.96,1.711,1.738a5.7,5.7,0,0,1,.114,1.424c.408,4.908,9.522,3.972,12.675,3.453C-2000.332-5484.456-1994.472-5484.166-1988.568-5484.158Z" fill="#fff" opacity="0.7"/>
        <g id="Grupo_9611" data-name="Grupo 9611">
          <g id="Grupo_9610" data-name="Grupo 9610">
            <path id="Trazado_25721" data-name="Trazado 25721" d="M-1872.345-5384.244v5.631l4.832-5.114Z" fill="#fff"/>
            <path id="Trazado_25722" data-name="Trazado 25722" d="M-1871.132-5383.728l19.03-15.334-9.07,17.89Z" fill="#fff"/>
            <path id="Trazado_25723" data-name="Trazado 25723" d="M-1852.1-5399.062l-26.866,12,7.836,3.339Z" fill="#fff"/>
            <path id="Trazado_25724" data-name="Trazado 25724" d="M-1871.132-5383.728l-1.212-.517,20.242-14.817Z" fill="#662d91"/>
          </g>
        </g>
        <g id="Grupo_9612" data-name="Grupo 9612">
          <path id="Trazado_25725" data-name="Trazado 25725" d="M-2190.991-5275.057c.2-1.743.259-3.673-.813-5.061-1.646-2.129-5.2-1.726-7.171.1s-2.77,4.568-3.484,7.164c4.146-12.76,8.087-27.52.962-38.888a7.288,7.288,0,0,0-3.312-3.163c-2.2-.842-4.773.314-6.252,2.148a15.15,15.15,0,0,0-2.584,6.508,93.726,93.726,0,0,0-2.023,21.28,21.02,21.02,0,0,0-5.176-17.115q-.72,2.022-1.441,4.045a55.957,55.957,0,0,0-3.033-33.2c-1.95-4.665-5.513-9.656-10.569-9.563-4.232.078-7.532,3.832-9.142,7.746-3.655,8.884-1.4,19.083,2.131,28.018a106.125,106.125,0,0,0,14.307,25.359c-1.5-2.912-5.836-3.529-8.513-1.643s-3.685,5.55-3.1,8.772a17.513,17.513,0,0,0,4.74,8.455,35.456,35.456,0,0,0,16.843,10.149C-2202.478-5249.66-2192.664-5260.284-2190.991-5275.057Z" fill="#7bb3e8"/>
          <path id="Trazado_25726" data-name="Trazado 25726" d="M-2206.737-5257.012s-33.482-38.286-28.665-79.838" fill="none" stroke="#244e80" stroke-linecap="round" stroke-linejoin="round" stroke-width="0.85"/>
          <path id="Trazado_25727" data-name="Trazado 25727" d="M-2227.81-5326.653s-2.317,11.344-6.116,15.722" fill="none" stroke="#244e80" stroke-linecap="round" stroke-linejoin="round" stroke-width="0.85"/>
          <path id="Trazado_25728" data-name="Trazado 25728" d="M-2230.742-5299.494s-3.782,1.378-7.348-3.128" fill="none" stroke="#244e80" stroke-linecap="round" stroke-linejoin="round" stroke-width="0.85"/>
          <path id="Trazado_25729" data-name="Trazado 25729" d="M-2205.607-5309.457s1.624,22.178-9.509,41.165" fill="none" stroke="#244e80" stroke-linecap="round" stroke-linejoin="round" stroke-width="0.85"/>
          <path id="Trazado_25730" data-name="Trazado 25730" d="M-2211.069-5262.515s-12.383-.114-24.313-12.425" fill="none" stroke="#244e80" stroke-linecap="round" stroke-linejoin="round" stroke-width="0.85"/>
          <path id="Trazado_25731" data-name="Trazado 25731" d="M-2194.334-5278.226s-5.134,15.075-14.094,19.161" fill="none" stroke="#244e80" stroke-linecap="round" stroke-linejoin="round" stroke-width="0.85"/>
          <path id="Trazado_25732" data-name="Trazado 25732" d="M-2207.223-5289.62s5.609-2.38,7.046-12.19" fill="none" stroke="#244e80" stroke-linecap="round" stroke-linejoin="round" stroke-width="0.85"/>
          <path id="Trazado_25733" data-name="Trazado 25733" d="M-2223.6-5266.161s-1.453,3.81-8.308.694" fill="none" stroke="#244e80" stroke-linecap="round" stroke-linejoin="round" stroke-width="0.85"/>
          <path id="Trazado_25734" data-name="Trazado 25734" d="M-2223.247-5282.062a30.725,30.725,0,0,0,3.808-14.63" fill="none" stroke="#244e80" stroke-linecap="round" stroke-linejoin="round" stroke-width="0.85"/>
        </g>
        <g id="Grupo_9630" data-name="Grupo 9630">
          <rect id="Rectángulo_2579" data-name="Rectángulo 2579" width="347" height="200.948" rx="10.029" transform="translate(-2222.699 -5469.888)" fill="#383838"/>
          <rect id="Rectángulo_2580" data-name="Rectángulo 2580" width="324.409" height="179.949" transform="translate(-2211.404 -5459.389)" fill="#fff"/>
          <rect id="Rectángulo_2581" data-name="Rectángulo 2581" width="324.409" height="14.135" transform="translate(-2211.404 -5459.389)" fill="#d7eff9"/>
          <g id="Grupo_9628" data-name="Grupo 9628">
            <g id="Grupo_9613" data-name="Grupo 9613">
              <path id="Trazado_25735" data-name="Trazado 25735" d="M-2009.958-5430.788h-.456v-1.366h-7.477v1.366h-19.82a2.627,2.627,0,0,0-2.628,2.627v14.55a2.627,2.627,0,0,0,2.628,2.628h27.753a2.628,2.628,0,0,0,2.628-2.628v-14.55A2.628,2.628,0,0,0-2009.958-5430.788Z" fill="#f97f40"/>
              <path id="Trazado_25736" data-name="Trazado 25736" d="M-2009.954-5410.983h-27.754a4.155,4.155,0,0,1-3.583-2.628l-5.3-14.55a1.778,1.778,0,0,1,1.671-2.627h27.754a4.156,4.156,0,0,1,3.583,2.627l5.3,14.55A1.778,1.778,0,0,1-2009.954-5410.983Z" fill="#faaf41"/>
            </g>
            <g id="Grupo_9614" data-name="Grupo 9614">
              <path id="Trazado_25737" data-name="Trazado 25737" d="M-1961.075-5430.788h-.456v-1.366h-7.478v1.366h-19.82a2.627,2.627,0,0,0-2.627,2.627v14.55a2.627,2.627,0,0,0,2.627,2.628h27.754a2.628,2.628,0,0,0,2.628-2.628v-14.55A2.628,2.628,0,0,0-1961.075-5430.788Z" fill="#f97f40"/>
              <path id="Trazado_25738" data-name="Trazado 25738" d="M-1961.071-5410.983h-27.754a4.158,4.158,0,0,1-3.584-2.628l-5.295-14.55a1.777,1.777,0,0,1,1.671-2.627h27.753a4.156,4.156,0,0,1,3.584,2.627l5.3,14.55A1.778,1.778,0,0,1-1961.071-5410.983Z" fill="#faaf41"/>
            </g>
            <g id="Grupo_9615" data-name="Grupo 9615">
              <path id="Trazado_25739" data-name="Trazado 25739" d="M-1912.192-5430.788h-.456v-1.366h-7.478v1.366h-19.82a2.627,2.627,0,0,0-2.627,2.627v14.55a2.627,2.627,0,0,0,2.627,2.628h27.754a2.627,2.627,0,0,0,2.627-2.628v-14.55A2.627,2.627,0,0,0-1912.192-5430.788Z" fill="#f97f40"/>
              <path id="Trazado_25740" data-name="Trazado 25740" d="M-1912.188-5410.983h-27.754a4.156,4.156,0,0,1-3.584-2.628l-5.3-14.55a1.778,1.778,0,0,1,1.672-2.627h27.753a4.157,4.157,0,0,1,3.584,2.627l5.3,14.55A1.778,1.778,0,0,1-1912.188-5410.983Z" fill="#faaf41"/>
            </g>
            <g id="Grupo_9616" data-name="Grupo 9616">
              <path id="Trazado_25741" data-name="Trazado 25741" d="M-2009.958-5401.942h-.456v-1.365h-7.477v1.365h-19.82a2.628,2.628,0,0,0-2.628,2.628v14.55a2.627,2.627,0,0,0,2.628,2.627h27.753a2.628,2.628,0,0,0,2.628-2.627v-14.55A2.628,2.628,0,0,0-2009.958-5401.942Z" fill="#f97f40"/>
              <path id="Trazado_25742" data-name="Trazado 25742" d="M-2009.954-5382.137h-27.754a4.155,4.155,0,0,1-3.583-2.627l-5.3-14.55a1.778,1.778,0,0,1,1.671-2.628h27.754a4.156,4.156,0,0,1,3.583,2.628l5.3,14.55A1.778,1.778,0,0,1-2009.954-5382.137Z" fill="#faaf41"/>
            </g>
            <g id="Grupo_9617" data-name="Grupo 9617">
              <path id="Trazado_25743" data-name="Trazado 25743" d="M-1961.075-5401.942h-.456v-1.365h-7.478v1.365h-19.82a2.628,2.628,0,0,0-2.627,2.628v14.55a2.627,2.627,0,0,0,2.627,2.627h27.754a2.628,2.628,0,0,0,2.628-2.627v-14.55A2.628,2.628,0,0,0-1961.075-5401.942Z" fill="#f97f40"/>
              <path id="Trazado_25744" data-name="Trazado 25744" d="M-1961.071-5382.137h-27.754a4.157,4.157,0,0,1-3.584-2.627l-5.295-14.55a1.778,1.778,0,0,1,1.671-2.628h27.753a4.156,4.156,0,0,1,3.584,2.628l5.3,14.55A1.778,1.778,0,0,1-1961.071-5382.137Z" fill="#faaf41"/>
            </g>
            <g id="Grupo_9618" data-name="Grupo 9618">
              <path id="Trazado_25745" data-name="Trazado 25745" d="M-1912.192-5401.942h-.456v-1.365h-7.478v1.365h-19.82a2.628,2.628,0,0,0-2.627,2.628v14.55a2.627,2.627,0,0,0,2.627,2.627h27.754a2.627,2.627,0,0,0,2.627-2.627v-14.55A2.628,2.628,0,0,0-1912.192-5401.942Z" fill="#f97f40"/>
              <path id="Trazado_25746" data-name="Trazado 25746" d="M-1912.188-5382.137h-27.754a4.156,4.156,0,0,1-3.584-2.627l-5.3-14.55a1.779,1.779,0,0,1,1.672-2.628h27.753a4.157,4.157,0,0,1,3.584,2.628l5.3,14.55A1.778,1.778,0,0,1-1912.188-5382.137Z" fill="#faaf41"/>
            </g>
            <g id="Grupo_9619" data-name="Grupo 9619">
              <path id="Trazado_25747" data-name="Trazado 25747" d="M-2009.958-5373.1h-.456v-1.366h-7.477v1.366h-19.82a2.627,2.627,0,0,0-2.628,2.627v14.55a2.628,2.628,0,0,0,2.628,2.628h27.753a2.628,2.628,0,0,0,2.628-2.628v-14.55A2.628,2.628,0,0,0-2009.958-5373.1Z" fill="#f97f40"/>
              <path id="Trazado_25748" data-name="Trazado 25748" d="M-2009.954-5353.29h-27.754a4.156,4.156,0,0,1-3.583-2.628l-5.3-14.55a1.778,1.778,0,0,1,1.671-2.627h27.754a4.155,4.155,0,0,1,3.583,2.627l5.3,14.55A1.778,1.778,0,0,1-2009.954-5353.29Z" fill="#faaf41"/>
            </g>
            <g id="Grupo_9620" data-name="Grupo 9620">
              <path id="Trazado_25749" data-name="Trazado 25749" d="M-1961.075-5373.1h-.456v-1.366h-7.478v1.366h-19.82a2.627,2.627,0,0,0-2.627,2.627v14.55a2.628,2.628,0,0,0,2.627,2.628h27.754a2.628,2.628,0,0,0,2.628-2.628v-14.55A2.628,2.628,0,0,0-1961.075-5373.1Z" fill="#f97f40"/>
              <path id="Trazado_25750" data-name="Trazado 25750" d="M-1961.071-5353.29h-27.754a4.158,4.158,0,0,1-3.584-2.628l-5.295-14.55a1.778,1.778,0,0,1,1.671-2.627h27.753a4.155,4.155,0,0,1,3.584,2.627l5.3,14.55A1.778,1.778,0,0,1-1961.071-5353.29Z" fill="#faaf41"/>
            </g>
            <g id="Grupo_9621" data-name="Grupo 9621">
              <path id="Trazado_25751" data-name="Trazado 25751" d="M-1912.192-5373.1h-.456v-1.366h-7.478v1.366h-19.82a2.627,2.627,0,0,0-2.627,2.627v14.55a2.628,2.628,0,0,0,2.627,2.628h27.754a2.628,2.628,0,0,0,2.627-2.628v-14.55A2.627,2.627,0,0,0-1912.192-5373.1Z" fill="#f97f40"/>
              <path id="Trazado_25752" data-name="Trazado 25752" d="M-1912.188-5353.29h-27.754a4.157,4.157,0,0,1-3.584-2.628l-5.3-14.55a1.778,1.778,0,0,1,1.672-2.627h27.753a4.157,4.157,0,0,1,3.584,2.627l5.3,14.55A1.778,1.778,0,0,1-1912.188-5353.29Z" fill="#faaf41"/>
            </g>
            <g id="Grupo_9622" data-name="Grupo 9622">
              <path id="Trazado_25753" data-name="Trazado 25753" d="M-2009.958-5344.249h-.456v-1.366h-7.477v1.366h-19.82a2.627,2.627,0,0,0-2.628,2.627v14.551a2.627,2.627,0,0,0,2.628,2.627h27.753a2.628,2.628,0,0,0,2.628-2.627v-14.551A2.628,2.628,0,0,0-2009.958-5344.249Z" fill="#f97f40"/>
              <path id="Trazado_25754" data-name="Trazado 25754" d="M-2009.954-5324.444h-27.754a4.156,4.156,0,0,1-3.583-2.627l-5.3-14.551a1.778,1.778,0,0,1,1.671-2.627h27.754a4.155,4.155,0,0,1,3.583,2.627l5.3,14.551A1.778,1.778,0,0,1-2009.954-5324.444Z" fill="#faaf41"/>
            </g>
            <g id="Grupo_9623" data-name="Grupo 9623">
              <path id="Trazado_25755" data-name="Trazado 25755" d="M-1961.075-5344.249h-.456v-1.366h-7.478v1.366h-19.82a2.627,2.627,0,0,0-2.627,2.627v14.551a2.627,2.627,0,0,0,2.627,2.627h27.754a2.628,2.628,0,0,0,2.628-2.627v-14.551A2.628,2.628,0,0,0-1961.075-5344.249Z" fill="#f97f40"/>
              <path id="Trazado_25756" data-name="Trazado 25756" d="M-1961.071-5324.444h-27.754a4.158,4.158,0,0,1-3.584-2.627l-5.295-14.551a1.777,1.777,0,0,1,1.671-2.627h27.753a4.155,4.155,0,0,1,3.584,2.627l5.3,14.551A1.778,1.778,0,0,1-1961.071-5324.444Z" fill="#faaf41"/>
            </g>
            <g id="Grupo_9624" data-name="Grupo 9624">
              <path id="Trazado_25757" data-name="Trazado 25757" d="M-1912.192-5344.249h-.456v-1.366h-7.478v1.366h-19.82a2.627,2.627,0,0,0-2.627,2.627v14.551a2.627,2.627,0,0,0,2.627,2.627h27.754a2.627,2.627,0,0,0,2.627-2.627v-14.551A2.627,2.627,0,0,0-1912.192-5344.249Z" fill="#f97f40"/>
              <path id="Trazado_25758" data-name="Trazado 25758" d="M-1912.188-5324.444h-27.754a4.157,4.157,0,0,1-3.584-2.627l-5.3-14.551a1.778,1.778,0,0,1,1.672-2.627h27.753a4.156,4.156,0,0,1,3.584,2.627l5.3,14.551A1.778,1.778,0,0,1-1912.188-5324.444Z" fill="#faaf41"/>
            </g>
            <g id="Grupo_9625" data-name="Grupo 9625">
              <path id="Trazado_25759" data-name="Trazado 25759" d="M-2009.958-5315.4h-.456v-1.365h-7.477v1.365h-19.82a2.628,2.628,0,0,0-2.628,2.628v14.55a2.627,2.627,0,0,0,2.628,2.627h27.753a2.628,2.628,0,0,0,2.628-2.627v-14.55A2.628,2.628,0,0,0-2009.958-5315.4Z" fill="#f97f40"/>
              <path id="Trazado_25760" data-name="Trazado 25760" d="M-2009.954-5295.6h-27.754a4.156,4.156,0,0,1-3.583-2.628l-5.3-14.55a1.778,1.778,0,0,1,1.671-2.628h27.754a4.156,4.156,0,0,1,3.583,2.628l5.3,14.55A1.778,1.778,0,0,1-2009.954-5295.6Z" fill="#faaf41"/>
            </g>
            <g id="Grupo_9626" data-name="Grupo 9626">
              <path id="Trazado_25761" data-name="Trazado 25761" d="M-1961.075-5315.4h-.456v-1.365h-7.478v1.365h-19.82a2.628,2.628,0,0,0-2.627,2.628v14.55a2.627,2.627,0,0,0,2.627,2.627h27.754a2.628,2.628,0,0,0,2.628-2.627v-14.55A2.628,2.628,0,0,0-1961.075-5315.4Z" fill="#f97f40"/>
              <path id="Trazado_25762" data-name="Trazado 25762" d="M-1961.071-5295.6h-27.754a4.158,4.158,0,0,1-3.584-2.628l-5.295-14.55a1.778,1.778,0,0,1,1.671-2.628h27.753a4.156,4.156,0,0,1,3.584,2.628l5.3,14.55A1.778,1.778,0,0,1-1961.071-5295.6Z" fill="#faaf41"/>
            </g>
            <g id="Grupo_9627" data-name="Grupo 9627">
              <path id="Trazado_25763" data-name="Trazado 25763" d="M-1912.192-5315.4h-.456v-1.365h-7.478v1.365h-19.82a2.628,2.628,0,0,0-2.627,2.628v14.55a2.627,2.627,0,0,0,2.627,2.627h27.754a2.627,2.627,0,0,0,2.627-2.627v-14.55A2.628,2.628,0,0,0-1912.192-5315.4Z" fill="#f97f40"/>
              <path id="Trazado_25764" data-name="Trazado 25764" d="M-1912.188-5295.6h-27.754a4.157,4.157,0,0,1-3.584-2.628l-5.3-14.55a1.779,1.779,0,0,1,1.672-2.628h27.753a4.157,4.157,0,0,1,3.584,2.628l5.3,14.55A1.778,1.778,0,0,1-1912.188-5295.6Z" fill="#faaf41"/>
            </g>
          </g>
          <rect id="Rectángulo_2582" data-name="Rectángulo 2582" width="65.74" height="161.363" transform="translate(-2209.366 -5443.223)" fill="#d7eff9"/>
          <rect id="Rectángulo_2583" data-name="Rectángulo 2583" width="2.814" height="161.363" transform="translate(-2068.623 -5443.223)" fill="#d7eff9"/>
          <rect id="Rectángulo_2584" data-name="Rectángulo 2584" width="51.53" height="4.482" transform="translate(-2140.04 -5435.453)" fill="#d7eff9"/>
          <rect id="Rectángulo_2585" data-name="Rectángulo 2585" width="51.53" height="4.482" transform="translate(-2202.261 -5435.453)" fill="#fff"/>
          <rect id="Rectángulo_2586" data-name="Rectángulo 2586" width="51.53" height="4.482" transform="translate(-2202.261 -5362.703)" fill="#fff"/>
          <rect id="Rectángulo_2587" data-name="Rectángulo 2587" width="48.254" height="4.482" transform="translate(-2202.261 -5352.428)" fill="#fff"/>
          <rect id="Rectángulo_2588" data-name="Rectángulo 2588" width="16.398" height="4.482" transform="translate(-2202.261 -5342.153)" fill="#fff"/>
          <rect id="Rectángulo_2589" data-name="Rectángulo 2589" width="34.465" height="4.482" transform="translate(-2202.261 -5331.877)" fill="#fff"/>
          <rect id="Rectángulo_2590" data-name="Rectángulo 2590" width="56.782" height="4.482" transform="translate(-2140.04 -5427.684)" fill="#d7eff9"/>
          <rect id="Rectángulo_2591" data-name="Rectángulo 2591" width="51.53" height="4.482" transform="translate(-2140.04 -5419.915)" fill="#d7eff9"/>
          <rect id="Rectángulo_2592" data-name="Rectángulo 2592" width="62.752" height="4.482" transform="translate(-2140.04 -5412.146)" fill="#d7eff9"/>
          <rect id="Rectángulo_2593" data-name="Rectángulo 2593" width="36.27" height="4.482" transform="translate(-2140.04 -5404.376)" fill="#d7eff9"/>
          <rect id="Rectángulo_2594" data-name="Rectángulo 2594" width="54.849" height="4.482" transform="translate(-2140.04 -5396.606)" fill="#d7eff9"/>
          <rect id="Rectángulo_2595" data-name="Rectángulo 2595" width="56.816" height="4.482" transform="translate(-2140.04 -5388.837)" fill="#d7eff9"/>
          <g id="Grupo_9629" data-name="Grupo 9629">
            <path id="Trazado_25765" data-name="Trazado 25765" d="M-2200.484-5452.321a2.382,2.382,0,0,1-2.383,2.382,2.381,2.381,0,0,1-2.382-2.382,2.382,2.382,0,0,1,2.382-2.383A2.383,2.383,0,0,1-2200.484-5452.321Z" fill="#e54c64"/>
            <path id="Trazado_25766" data-name="Trazado 25766" d="M-2191.679-5452.321a2.382,2.382,0,0,1-2.383,2.382,2.382,2.382,0,0,1-2.383-2.382,2.383,2.383,0,0,1,2.383-2.383A2.383,2.383,0,0,1-2191.679-5452.321Z" fill="#fbb040"/>
            <path id="Trazado_25767" data-name="Trazado 25767" d="M-2182.875-5452.321a2.381,2.381,0,0,1-2.382,2.382,2.382,2.382,0,0,1-2.383-2.382,2.383,2.383,0,0,1,2.383-2.383A2.382,2.382,0,0,1-2182.875-5452.321Z" fill="#8dc63f"/>
          </g>
          <path id="Trazado_25768" data-name="Trazado 25768" d="M-1896.918-5449.939h-253.835a3.263,3.263,0,0,1-3.254-3.254h0a3.264,3.264,0,0,1,3.254-3.254h253.835a3.264,3.264,0,0,1,3.254,3.254h0A3.263,3.263,0,0,1-1896.918-5449.939Z" fill="#fff"/>
        </g>
        <g id="Grupo_9635" data-name="Grupo 9635">
          <path id="Trazado_25769" data-name="Trazado 25769" d="M-1887.685-5225.577c0,1.606-25.508,2.908-56.973,2.908s-56.972-1.3-56.972-2.908,25.507-2.909,56.972-2.909S-1887.685-5227.184-1887.685-5225.577Z" fill="#3a9ca8" opacity="0.25"/>
          <g id="Grupo_9634" data-name="Grupo 9634">
            <g id="Grupo_9631" data-name="Grupo 9631">
              <path id="Trazado_25770" data-name="Trazado 25770" d="M-1965.849-5338.177a7.259,7.259,0,0,1-10.062-2.03,7.26,7.26,0,0,1,2.03-10.063,7.258,7.258,0,0,1,10.062,2.031A7.258,7.258,0,0,1-1965.849-5338.177Z" fill="#fff" opacity="0.6"/>
              <path id="Trazado_25771" data-name="Trazado 25771" d="M-1965.849-5338.177a7.332,7.332,0,0,0,1.01-.81l-5.9-12.441a7.224,7.224,0,0,0-3.14,1.158c-.074.049-.145.1-.216.152l6.375,12.83A7.26,7.26,0,0,0-1965.849-5338.177Z" fill="#fff" opacity="0.6"/>
              <path id="Trazado_25772" data-name="Trazado 25772" d="M-1968.839-5337.036l-6.369-12.1a7.217,7.217,0,0,0-.623.778l5.847,11.392A7.322,7.322,0,0,0-1968.839-5337.036Z" fill="#fff" opacity="0.6"/>
              <path id="Trazado_25773" data-name="Trazado 25773" d="M-1976.436-5339.859a7.9,7.9,0,0,1,2.206-10.935,7.9,7.9,0,0,1,10.936,2.206,7.9,7.9,0,0,1-2.206,10.936A7.9,7.9,0,0,1-1976.436-5339.859Zm12.093-8.032a6.637,6.637,0,0,0-9.189-1.854,6.635,6.635,0,0,0-1.854,9.189,6.635,6.635,0,0,0,9.189,1.854A6.637,6.637,0,0,0-1964.343-5347.891Z" fill="#3d2b4f"/>
              <path id="Trazado_25774" data-name="Trazado 25774" d="M-1975.563-5339.682l-14.5,10.235a1.132,1.132,0,0,1-1.578-.272,1.131,1.131,0,0,1,.272-1.578l.054-.036,15.057-9.4a.631.631,0,0,1,.869.2A.632.632,0,0,1-1975.563-5339.682Z" fill="#3d2b4f"/>
            </g>
            <path id="Trazado_25775" data-name="Trazado 25775" d="M-1972.876-5225.37v2.8s-11.163,2.172-21.264,0l4.6-2.8Z" fill="#171c27"/>
            <path id="Trazado_25776" data-name="Trazado 25776" d="M-1902.028-5242.1h3.043s1.955,10.907,0,15.623a4.66,4.66,0,0,1-4.256,1.725,3.329,3.329,0,0,0,1.213-3.351Z" fill="#171c27"/>
            <path id="Trazado_25777" data-name="Trazado 25777" d="M-1933.35-5269.907l.472,26.09,30.85,1.716s2.019,9.691,0,14h-30.85s-15.839,2.837-16.715-12.365-.95-25.3-.95-25.3S-1939.779-5271.207-1933.35-5269.907Z" fill="#062538"/>
            <path id="Trazado_25778" data-name="Trazado 25778" d="M-1932.856-5273.747s3.608,11.555-3.116,14-38.3,0-38.3,0l1.4,34.375s-8.972,2.8-16.663,0l-1.049-40.434s-2.484-11.573,20.043-9.677Z" fill="#0a3759"/>
            <path id="Trazado_25779" data-name="Trazado 25779" d="M-1980.657-5339.695a2.479,2.479,0,0,0-.942-.893.909.909,0,0,0-1.155.3c-.312.6.364,1.244.4,1.915a1.5,1.5,0,0,1-.735,1.245,10.853,10.853,0,0,1-1.359.66,5.2,5.2,0,0,0-2.547,6.131,1.79,1.79,0,0,0,.786,1.076,2.177,2.177,0,0,0,1.672-.119,20.42,20.42,0,0,0,4.234-1.861c1.176-.746,3.029-2.155,2.478-3.682A20.831,20.831,0,0,0-1980.657-5339.695Z" fill="#a05e47"/>
            <path id="Trazado_25780" data-name="Trazado 25780" d="M-1936.345-5282.768c.089,0,.177,0,.265-.007,4.464-.218,7.841-1.627,10.035-4.188a9.444,9.444,0,0,0,2.277-6.88,5.385,5.385,0,0,0-.09-.565c-1.977-9.157-9.391-20.933-9.706-21.429a5.34,5.34,0,0,0-7.37-1.656,5.345,5.345,0,0,0-1.658,7.371c1.707,2.7,6.152,10.462,7.887,16.4a8.514,8.514,0,0,1-1.9.277,5.342,5.342,0,0,0-5.076,5.6A5.343,5.343,0,0,0-1936.345-5282.768Z" fill="#2481d3"/>
            <path id="Trazado_25781" data-name="Trazado 25781" d="M-1936.6-5293.447a5.342,5.342,0,0,0-5.076,5.6,5.342,5.342,0,0,0,5.331,5.081c.089,0,.177,0,.265-.006a15.026,15.026,0,0,0,8.235-2.537c-4.84-7.737-6.046-22.74-6.046-22.74l-6.208,2.2a66.884,66.884,0,0,1,5.394,12.127A8.514,8.514,0,0,1-1936.6-5293.447Z" fill="#126bad"/>
            <path id="Trazado_25782" data-name="Trazado 25782" d="M-1968.993-5318.836l15.948-.487a5.324,5.324,0,0,1,5.5,5.177,5.342,5.342,0,0,1-5.176,5.5l-19.244.588c-.055,0-.109,0-.165,0a5.342,5.342,0,0,1-4.7-2.8l-10.252-18.969c3.06-1.991,9.4-5.08,9.4-5.08Z" fill="#2481d3"/>
            <g id="Grupo_9633" data-name="Grupo 9633">
              <g id="Grupo_9632" data-name="Grupo 9632">
                <path id="Trazado_25783" data-name="Trazado 25783" d="M-1940.5-5328.845l-.487,9.333-4.5,3.692-4.044-2.763.293-5.613Z" fill="#a05e47"/>
              </g>
              <rect id="Rectángulo_2596" data-name="Rectángulo 2596" width="15.865" height="22.684" rx="6.728" transform="translate(-1955.609 -5343.816) rotate(2.984)" fill="#a05e47"/>
              <path id="Trazado_25784" data-name="Trazado 25784" d="M-1948.346-5325.043a11.039,11.039,0,0,1-2.02-4.751,1.734,1.734,0,0,1-.064-.84,1.987,1.987,0,0,1,.444-.706,3.118,3.118,0,0,0,.8-1.834,1.526,1.526,0,0,0-1.072-1.546,1.624,1.624,0,0,0-1.735,1.3,4.722,4.722,0,0,0,.215,2.359c-.791.345-1.609-.578-1.682-1.438s.256-1.719.168-2.577c-.144-1.39-1.308-2.411-2.142-3.532s-1.285-2.906-.19-3.775a9.426,9.426,0,0,1,1.57-.722c.864-.456,1.394-1.375,2.216-1.9a4.893,4.893,0,0,1,1.945-.625c4.077-.609,8.76.848,10.689,4.491,1.456,2.748,1.085,6.064.676,9.147-.342,2.579-.309,6.7-2.9,8.076A5.826,5.826,0,0,1-1948.346-5325.043Z" fill="#171c27"/>
            </g>
            <path id="Trazado_25785" data-name="Trazado 25785" d="M-1941.264-5319.963s9.059,0,8.371,9.744-1.95,15.537-.8,21.857a81.727,81.727,0,0,1,.84,14.615s-18.727,6.134-28.932-.581c0,0,1.49-31.678,1.834-36.55s4.924-9.134,12.155-9.085l7.23.049" fill="#2481d3"/>
            <path id="Trazado_25786" data-name="Trazado 25786" d="M-1948.405-5274.139a37.9,37.9,0,0,0,15.667-3.3.177.177,0,0,0,.077-.239.179.179,0,0,0-.239-.077,37.774,37.774,0,0,1-28.446.875.177.177,0,0,0-.23.1.176.176,0,0,0,.1.23A36.151,36.151,0,0,0-1948.405-5274.139Z" fill="#0d314c"/>
            <path id="Trazado_25787" data-name="Trazado 25787" d="M-1940.569-5319.914" fill="none" stroke="#45596d" stroke-linecap="round" stroke-linejoin="round" stroke-width="0.283"/>
            <path id="Trazado_25788" data-name="Trazado 25788" d="M-1933-5282.028h.008a.178.178,0,0,0,.17-.185,50.6,50.6,0,0,0-.7-6.182c-.82-4.518-.411-8.675.155-14.428.214-2.176.457-4.642.651-7.384a.179.179,0,0,0-.166-.19.192.192,0,0,0-.19.166c-.193,2.735-.436,5.2-.649,7.373-.548,5.565-.981,9.96-.152,14.528a49.868,49.868,0,0,1,.7,6.132A.177.177,0,0,0-1933-5282.028Z" fill="#0d314c"/>
            <path id="Trazado_25789" data-name="Trazado 25789" d="M-1985.963-5327.585a.174.174,0,0,0,.044,0,24.945,24.945,0,0,0,9.486-5.1.179.179,0,0,0,.011-.252.181.181,0,0,0-.252-.011,24.5,24.5,0,0,1-9.332,5.02.177.177,0,0,0-.129.217A.177.177,0,0,0-1985.963-5327.585Z" fill="#0d314c"/>
            <path id="Trazado_25790" data-name="Trazado 25790" d="M-1977.092-5332.821a.179.179,0,0,0,.1-.031.179.179,0,0,0,.047-.248l-.84-1.234a.179.179,0,0,0-.247-.047.179.179,0,0,0-.048.248l.84,1.235A.18.18,0,0,0-1977.092-5332.821Z" fill="#0d314c"/>
            <path id="Trazado_25791" data-name="Trazado 25791" d="M-1977.953-5332.129a.164.164,0,0,0,.083-.021.176.176,0,0,0,.074-.24,8.611,8.611,0,0,0-.854-1.311.178.178,0,0,0-.25-.029.178.178,0,0,0-.029.25,8.456,8.456,0,0,1,.819,1.257A.177.177,0,0,0-1977.953-5332.129Z" fill="#0d314c"/>
            <path id="Trazado_25792" data-name="Trazado 25792" d="M-1978.857-5331.415a.176.176,0,0,0,.081-.019.178.178,0,0,0,.077-.24,11.309,11.309,0,0,0-.729-1.23.177.177,0,0,0-.247-.048.177.177,0,0,0-.047.246,11.489,11.489,0,0,1,.707,1.194A.177.177,0,0,0-1978.857-5331.415Z" fill="#0d314c"/>
            <path id="Trazado_25793" data-name="Trazado 25793" d="M-1979.81-5330.987a.181.181,0,0,0,.105-.034.178.178,0,0,0,.038-.249,9.711,9.711,0,0,1-.89-1.471.182.182,0,0,0-.239-.081.177.177,0,0,0-.081.238,10.125,10.125,0,0,0,.923,1.525A.177.177,0,0,0-1979.81-5330.987Z" fill="#0d314c"/>
            <path id="Trazado_25794" data-name="Trazado 25794" d="M-1980.905-5330.248a.171.171,0,0,0,.073-.016.177.177,0,0,0,.089-.235l-.614-1.36a.179.179,0,0,0-.236-.088.176.176,0,0,0-.089.235l.614,1.36A.18.18,0,0,0-1980.905-5330.248Z" fill="#0d314c"/>
            <path id="Trazado_25795" data-name="Trazado 25795" d="M-1981.972-5329.822a.177.177,0,0,0,.108-.037.177.177,0,0,0,.033-.249,11.354,11.354,0,0,1-1-1.562.177.177,0,0,0-.241-.074.179.179,0,0,0-.074.241,11.737,11.737,0,0,0,1.03,1.611A.181.181,0,0,0-1981.972-5329.822Z" fill="#0d314c"/>
            <path id="Trazado_25796" data-name="Trazado 25796" d="M-1982.955-5329.247a.192.192,0,0,0,.078-.017.178.178,0,0,0,.082-.238l-.67-1.379a.182.182,0,0,0-.238-.084.179.179,0,0,0-.082.239l.67,1.379A.176.176,0,0,0-1982.955-5329.247Z" fill="#0d314c"/>
            <path id="Trazado_25797" data-name="Trazado 25797" d="M-1984.191-5328.867a.178.178,0,0,0,.086-.023.176.176,0,0,0,.07-.241c-.291-.529-.57-1.071-.83-1.61a.174.174,0,0,0-.238-.084.179.179,0,0,0-.082.238c.262.545.544,1.092.838,1.627A.179.179,0,0,0-1984.191-5328.867Z" fill="#0d314c"/>
            <path id="Trazado_25798" data-name="Trazado 25798" d="M-1985.523-5328.368a.173.173,0,0,0,.109-.038.177.177,0,0,0,.03-.25,4.235,4.235,0,0,1-.621-1.094.175.175,0,0,0-.23-.1.178.178,0,0,0-.1.23,4.584,4.584,0,0,0,.675,1.186A.176.176,0,0,0-1985.523-5328.368Z" fill="#0d314c"/>
            <path id="Trazado_25799" data-name="Trazado 25799" d="M-1933.713-5273.587a.178.178,0,0,0,.178-.178v-2.486a.178.178,0,0,0-.178-.178.178.178,0,0,0-.178.178v2.486A.178.178,0,0,0-1933.713-5273.587Z" fill="#0d314c"/>
            <path id="Trazado_25800" data-name="Trazado 25800" d="M-1934.886-5273.725a.178.178,0,0,0,.178-.178v-1.761a.178.178,0,0,0-.178-.178.178.178,0,0,0-.178.178v1.761A.178.178,0,0,0-1934.886-5273.725Z" fill="#0d314c"/>
            <path id="Trazado_25801" data-name="Trazado 25801" d="M-1936.15-5273.093a.178.178,0,0,0,.178-.178v-2.032a.177.177,0,0,0-.178-.178.178.178,0,0,0-.178.178v2.032A.178.178,0,0,0-1936.15-5273.093Z" fill="#0d314c"/>
            <path id="Trazado_25802" data-name="Trazado 25802" d="M-1937.639-5272.821a.178.178,0,0,0,.178-.178v-1.627a.178.178,0,0,0-.178-.178.178.178,0,0,0-.178.178V-5273A.178.178,0,0,0-1937.639-5272.821Z" fill="#0d314c"/>
            <path id="Trazado_25803" data-name="Trazado 25803" d="M-1938.993-5272.5a.179.179,0,0,0,.178-.178v-1.811a.178.178,0,0,0-.178-.178.178.178,0,0,0-.178.178v1.811A.179.179,0,0,0-1938.993-5272.5Z" fill="#0d314c"/>
            <path id="Trazado_25804" data-name="Trazado 25804" d="M-1940.3-5272.178a.178.178,0,0,0,.178-.178v-1.819a.178.178,0,0,0-.178-.177.177.177,0,0,0-.178.177v1.819A.177.177,0,0,0-1940.3-5272.178Z" fill="#0d314c"/>
            <path id="Trazado_25805" data-name="Trazado 25805" d="M-1941.836-5272.187a.178.178,0,0,0,.178-.178v-1.72a.179.179,0,0,0-.178-.178.179.179,0,0,0-.178.178v1.72A.178.178,0,0,0-1941.836-5272.187Z" fill="#0d314c"/>
            <path id="Trazado_25806" data-name="Trazado 25806" d="M-1943.144-5272.1a.178.178,0,0,0,.178-.178v-1.489a.178.178,0,0,0-.178-.178.177.177,0,0,0-.178.178v1.489A.178.178,0,0,0-1943.144-5272.1Z" fill="#0d314c"/>
            <path id="Trazado_25807" data-name="Trazado 25807" d="M-1944.318-5271.636a.177.177,0,0,0,.178-.178v-1.774a.178.178,0,0,0-.178-.178.178.178,0,0,0-.178.178v1.774A.177.177,0,0,0-1944.318-5271.636Z" fill="#0d314c"/>
            <path id="Trazado_25808" data-name="Trazado 25808" d="M-1945.9-5271.965a.178.178,0,0,0,.178-.177v-1.131a.178.178,0,0,0-.178-.177.178.178,0,0,0-.178.177v1.131A.178.178,0,0,0-1945.9-5271.965Z" fill="#0d314c"/>
            <path id="Trazado_25809" data-name="Trazado 25809" d="M-1946.981-5271.6a.179.179,0,0,0,.178-.178v-1.4a.178.178,0,0,0-.178-.178.178.178,0,0,0-.178.178v1.4A.179.179,0,0,0-1946.981-5271.6Z" fill="#0d314c"/>
            <path id="Trazado_25810" data-name="Trazado 25810" d="M-1948.018-5271.46a.179.179,0,0,0,.178-.178v-1.77a.178.178,0,0,0-.178-.178.178.178,0,0,0-.178.178v1.77A.179.179,0,0,0-1948.018-5271.46Z" fill="#0d314c"/>
            <path id="Trazado_25811" data-name="Trazado 25811" d="M-1949.147-5271.4a.178.178,0,0,0,.178-.178v-1.826a.178.178,0,0,0-.178-.178.178.178,0,0,0-.177.178v1.826A.178.178,0,0,0-1949.147-5271.4Z" fill="#0d314c"/>
            <path id="Trazado_25812" data-name="Trazado 25812" d="M-1950.365-5271.779a.178.178,0,0,0,.178-.178v-1.451a.178.178,0,0,0-.178-.178.178.178,0,0,0-.178.178v1.451A.178.178,0,0,0-1950.365-5271.779Z" fill="#0d314c"/>
            <path id="Trazado_25813" data-name="Trazado 25813" d="M-1951.539-5271.965a.177.177,0,0,0,.178-.177v-1.266a.178.178,0,0,0-.178-.178.178.178,0,0,0-.178.178v1.266A.178.178,0,0,0-1951.539-5271.965Z" fill="#0d314c"/>
            <path id="Trazado_25814" data-name="Trazado 25814" d="M-1952.938-5271.636a.177.177,0,0,0,.178-.178v-1.729a.177.177,0,0,0-.178-.177.177.177,0,0,0-.177.177v1.729A.177.177,0,0,0-1952.938-5271.636Z" fill="#0d314c"/>
            <path id="Trazado_25815" data-name="Trazado 25815" d="M-1954.246-5271.939a.178.178,0,0,0,.178-.178v-1.877a.178.178,0,0,0-.178-.178.178.178,0,0,0-.178.178v1.877A.178.178,0,0,0-1954.246-5271.939Z" fill="#0d314c"/>
            <path id="Trazado_25816" data-name="Trazado 25816" d="M-1955.239-5272.243a.178.178,0,0,0,.178-.178v-1.708a.178.178,0,0,0-.178-.178.178.178,0,0,0-.178.178v1.708A.178.178,0,0,0-1955.239-5272.243Z" fill="#0d314c"/>
            <path id="Trazado_25817" data-name="Trazado 25817" d="M-1956.5-5272.412a.178.178,0,0,0,.178-.178v-1.856a.179.179,0,0,0-.178-.178.179.179,0,0,0-.178.178v1.856A.178.178,0,0,0-1956.5-5272.412Z" fill="#0d314c"/>
            <path id="Trazado_25818" data-name="Trazado 25818" d="M-1957.586-5272.682a.178.178,0,0,0,.178-.178v-1.811a.177.177,0,0,0-.178-.178.177.177,0,0,0-.177.178v1.811A.177.177,0,0,0-1957.586-5272.682Z" fill="#0d314c"/>
            <path id="Trazado_25819" data-name="Trazado 25819" d="M-1958.849-5273a.178.178,0,0,0,.178-.178v-1.627a.178.178,0,0,0-.178-.178.178.178,0,0,0-.178.178v1.627A.178.178,0,0,0-1958.849-5273Z" fill="#0d314c"/>
            <path id="Trazado_25820" data-name="Trazado 25820" d="M-1960.068-5273.68a.178.178,0,0,0,.178-.178v-1.671a.178.178,0,0,0-.178-.178.178.178,0,0,0-.178.178v1.671A.178.178,0,0,0-1960.068-5273.68Z" fill="#0d314c"/>
            <path id="Trazado_25821" data-name="Trazado 25821" d="M-1960.97-5273.994a.178.178,0,0,0,.178-.178v-1.763a.178.178,0,0,0-.178-.178.178.178,0,0,0-.178.178v1.763A.178.178,0,0,0-1960.97-5273.994Z" fill="#0d314c"/>
          </g>
        </g>
        <g id="Grupo_9644" data-name="Grupo 9644">
          <path id="Trazado_25822" data-name="Trazado 25822" d="M-2062.6-5222.577c0,1.606-13.609,2.908-30.4,2.908s-30.4-1.3-30.4-2.908,13.609-2.909,30.4-2.909S-2062.6-5224.184-2062.6-5222.577Z" fill="#3a9ca8" opacity="0.25"/>
          <g id="Grupo_9643" data-name="Grupo 9643">
            <g id="Grupo_9641" data-name="Grupo 9641">
              <path id="Trazado_25823" data-name="Trazado 25823" d="M-2116.623-5339.351a5.207,5.207,0,0,0-.148-2.455,4.069,4.069,0,0,0-2.223-2.264,6.638,6.638,0,0,0-3.2-.457,3.992,3.992,0,0,0-1.261.268,4.618,4.618,0,0,0-1.454,1.127,4.1,4.1,0,0,0-.9,1.228,3.5,3.5,0,0,0-.219,1.134,8.258,8.258,0,0,0,.841,4.114,3.858,3.858,0,0,0,1,1.348,4.467,4.467,0,0,0,2.131.77,4.441,4.441,0,0,0,2.073-.048C-2118.069-5335.218-2116.874-5337.51-2116.623-5339.351Z" fill="#d6957b"/>
              <g id="Grupo_9636" data-name="Grupo 9636">
                <circle id="Elipse_523" data-name="Elipse 523" cx="7.259" cy="7.259" r="7.259" transform="translate(-2132.092 -5361.639) rotate(-4.911)" fill="#fff" opacity="0.6"/>
                <path id="Trazado_25824" data-name="Trazado 25824" d="M-2117.14-5356.543a7.282,7.282,0,0,0-.383-1.237l-13.739.921a7.208,7.208,0,0,0-.075,3.346c.018.087.04.172.061.257l14.275-1.218A7.268,7.268,0,0,0-2117.14-5356.543Z" fill="#fff" opacity="0.6"/>
                <path id="Trazado_25825" data-name="Trazado 25825" d="M-2117.177-5353.343l-13.594,1.481a7.149,7.149,0,0,0,.5.865l12.743-1.256A7.333,7.333,0,0,0-2117.177-5353.343Z" fill="#fff" opacity="0.6"/>
                <path id="Trazado_25826" data-name="Trazado 25826" d="M-2122.592-5347.313a7.9,7.9,0,0,1-9.362-6.068,7.9,7.9,0,0,1,6.068-9.362,7.9,7.9,0,0,1,9.362,6.068A7.9,7.9,0,0,1-2122.592-5347.313Zm-3.031-14.2a6.635,6.635,0,0,0-5.1,7.866,6.636,6.636,0,0,0,7.866,5.1,6.637,6.637,0,0,0,5.1-7.867A6.636,6.636,0,0,0-2125.623-5361.51Z" fill="#3d2b4f"/>
                <path id="Trazado_25827" data-name="Trazado 25827" d="M-2122.107-5348.061l4.194,17.248a1.133,1.133,0,0,1-.832,1.368,1.132,1.132,0,0,1-1.368-.833c0-.02-.01-.043-.014-.063l-3.213-17.457a.631.631,0,0,1,.506-.734A.635.635,0,0,1-2122.107-5348.061Z" fill="#3d2b4f"/>
              </g>
              <path id="Trazado_25828" data-name="Trazado 25828" d="M-2127.23-5339.38c.549-2.274,2.482-4.336,4.82-4.4.891-.024,1.961.443,2.009,1.333a1.485,1.485,0,0,1-.781,1.274,4.352,4.352,0,0,1-1.492.461,3.212,3.212,0,0,1,1.658,2.863,5.5,5.5,0,0,1-1.332,4.2c-.891.934-3.254,1.951-4.178.618C-2127.6-5334.575-2127.652-5337.633-2127.23-5339.38Z" fill="#eeb399"/>
              <g id="Grupo_9640" data-name="Grupo 9640">
                <path id="Trazado_25829" data-name="Trazado 25829" d="M-2091.623-5225.033v2.124s10.659,1.028,17.919,0l-2.61-2.124Z" fill="#171e26"/>
                <path id="Trazado_25830" data-name="Trazado 25830" d="M-2112.793-5225.033v2.124s10.659,1.028,17.919,0l-2.61-2.124Z" fill="#171e26"/>
                <path id="Trazado_25831" data-name="Trazado 25831" d="M-2100.614-5355.871a5.354,5.354,0,0,0-7.185,2.394l-8.642,17.28-.526-1.113a18.538,18.538,0,0,0-9.681,4.582l5.235,11.059a5.353,5.353,0,0,0,2.857,2.683,5.325,5.325,0,0,0,1.925.381,5.358,5.358,0,0,0,4.848-2.959l13.564-27.122A5.356,5.356,0,0,0-2100.614-5355.871Z" fill="#e54c64"/>
                <path id="Trazado_25832" data-name="Trazado 25832" d="M-2100.423-5356.29a5.055,5.055,0,0,0-6.859,2.557l-1.792,3.708c2.26,6.994,1.782,15.634,1.691,19.625l9.354-18.705A5.355,5.355,0,0,0-2100.423-5356.29Z" fill="#99293f"/>
                <g id="Grupo_9638" data-name="Grupo 9638">
                  <g id="Grupo_9637" data-name="Grupo 9637">
                    <path id="Trazado_25833" data-name="Trazado 25833" d="M-2099.817-5368.3l.485,9.3,4.488,3.678,4.03-2.753-.292-5.592Z" fill="#eeb399"/>
                  </g>
                  <rect id="Rectángulo_2597" data-name="Rectángulo 2597" width="15.807" height="22.601" rx="6.313" transform="translate(-2083.589 -5360.646) rotate(177.015)" fill="#eeb399"/>
                  <path id="Trazado_25834" data-name="Trazado 25834" d="M-2092-5364.512a10.981,10.981,0,0,0,2.013-4.733,1.734,1.734,0,0,0,.064-.837,1.985,1.985,0,0,0-.443-.7,3.108,3.108,0,0,1-.8-1.828,1.52,1.52,0,0,1,1.068-1.54,1.617,1.617,0,0,1,1.728,1.294,4.7,4.7,0,0,1-.215,2.351c.789.343,1.6-.576,1.677-1.433s-.255-1.713-.167-2.568c.142-1.385,1.3-2.4,2.133-3.518s1.28-2.9.19-3.762a9.4,9.4,0,0,0-1.564-.72c-.861-.453-1.389-1.369-2.209-1.894a4.878,4.878,0,0,0-1.937-.624c-4.062-.606-8.728.845-10.651,4.475-1.45,2.738-1.081,6.043-.673,9.114.341,2.569.308,6.675,2.893,8.047A5.805,5.805,0,0,0-2092-5364.512Z" fill="#171c27"/>
                </g>
                <path id="Trazado_25835" data-name="Trazado 25835" d="M-2076.576-5316.4l.262,91.365s-9.939,1.143-15.309,0l-1.6-78.017-3.767,78.525a122.454,122.454,0,0,1-15.8,0l6.425-89.265Z" fill="#171e26"/>
                <path id="Trazado_25836" data-name="Trazado 25836" d="M-2077.053-5350.229c.123.553.22,1.113.3,1.671.25,1.73.509,3.421.672,5.164.366,3.914.67,7.834.829,11.763a120.461,120.461,0,0,1-.157,13.664c-.306,4.186-1.992,5.243-5.935,6.595a37.685,37.685,0,0,1-10.671,1.724c-3.005.12-13.031.048-14.353-4.142-.428-1.359,1.053-4.467,1.3-5.927a39.415,39.415,0,0,0,.544-6.057,38.9,38.9,0,0,0-1.613-11.611c-1.584-5.3-4.692-10.154-2-15.494,2.736-5.434,9.077-7.035,14.715-7.112a26.794,26.794,0,0,1,8.667,1.1,9.607,9.607,0,0,1,3.651,1.985,13.683,13.683,0,0,1,2.863,3.4A12.013,12.013,0,0,1-2077.053-5350.229Z" fill="#e54c64"/>
                <g id="Grupo_9639" data-name="Grupo 9639">
                  <path id="Trazado_25837" data-name="Trazado 25837" d="M-2111.74-5334.807l.034-.071A.076.076,0,0,0-2111.74-5334.807Z" fill="#7298e2"/>
                </g>
                <path id="Trazado_25838" data-name="Trazado 25838" d="M-2102.278-5307.6s6.759,7.349,18.885,4.042" fill="none" stroke="#5077b5" stroke-linecap="round" stroke-linejoin="round" stroke-width="0.567"/>
                <path id="Trazado_25839" data-name="Trazado 25839" d="M-2055.875-5354.536l-11.443,8.292-13.938-10.767a5.356,5.356,0,0,0-7.513.964,5.356,5.356,0,0,0,.965,7.512l17.11,13.217a5.35,5.35,0,0,0,3.274,1.117,5.346,5.346,0,0,0,3.142-1.019l14.688-10.643C-2050.21-5350.666-2055.875-5354.536-2055.875-5354.536Z" fill="#e54c64"/>
                <path id="Trazado_25840" data-name="Trazado 25840" d="M-2116.348-5336.382s-2.478,4.04-2.162,7.474" fill="none" stroke="#99293f" stroke-linecap="round" stroke-linejoin="round" stroke-width="0.283"/>
                <path id="Trazado_25841" data-name="Trazado 25841" d="M-2091.421-5229.791s8.125,1.364,14.66,0" fill="none" stroke="#5077b5" stroke-linecap="round" stroke-linejoin="round" stroke-width="0.567"/>
                <path id="Trazado_25842" data-name="Trazado 25842" d="M-2112.084-5229.791s9.535,1.368,14.937,0" fill="none" stroke="#5077b5" stroke-linecap="round" stroke-linejoin="round" stroke-width="0.567"/>
                <path id="Trazado_25843" data-name="Trazado 25843" d="M-2051.268-5357.831a2.606,2.606,0,0,1,1.283-.449.952.952,0,0,1,.975.782c.043.7-.881,1.033-1.205,1.658a1.569,1.569,0,0,0,.169,1.5,11.019,11.019,0,0,0,1.015,1.213,5.443,5.443,0,0,1-.2,6.951,1.873,1.873,0,0,1-1.212.691,2.282,2.282,0,0,1-1.547-.831,21.438,21.438,0,0,1-3.248-3.593c-.8-1.216-1.97-3.358-.789-4.58A21.808,21.808,0,0,1-2051.268-5357.831Z" fill="#eeb399"/>
                <path id="Trazado_25844" data-name="Trazado 25844" d="M-2088.954-5365.871a11.275,11.275,0,0,0,4.226,4.979c.615.368,1.391.881,1.225,1.578a1.373,1.373,0,0,1-.595.737c-1.778,1.29-4.1,1.477-6.291,1.619l-5,.324c-3.981.258-8.106.5-11.834-.924a1.042,1.042,0,0,1-.537-.355c-.285-.442.168-.976.552-1.336a12.58,12.58,0,0,0,3.428-6.441c.829-3.6.3-7.291.986-10.883.379-1.992,1.3-4.113,3.175-4.893a4.472,4.472,0,0,1,3.9.364c1.547.9,2.169,2.492,3.273,3.776a7.275,7.275,0,0,1,1.682,4.878A15.846,15.846,0,0,0-2088.954-5365.871Z" fill="#171c27"/>
              </g>
              <path id="Trazado_25845" data-name="Trazado 25845" d="M-2075.717-5339.2l-7.676-5.93s6.3,7.73,8.1,12.483C-2075.3-5332.645-2075.32-5335.582-2075.717-5339.2Z" fill="#99293f"/>
            </g>
            <g id="Grupo_9642" data-name="Grupo 9642">
              <path id="Trazado_25846" data-name="Trazado 25846" d="M-2101.4-5318.195a3.6,3.6,0,0,1-.29,2.006" fill="none" stroke="#fbb040" stroke-linecap="round" stroke-linejoin="round" stroke-width="1"/>
              <path id="Trazado_25847" data-name="Trazado 25847" d="M-2101.363-5322.7a1.507,1.507,0,0,1,.556,1.725" fill="none" stroke="#fbb040" stroke-linecap="round" stroke-linejoin="round" stroke-width="1"/>
              <path id="Trazado_25848" data-name="Trazado 25848" d="M-2094.773-5324.661l-.154.924" fill="none" stroke="#fbb040" stroke-linecap="round" stroke-linejoin="round" stroke-width="1"/>
              <path id="Trazado_25849" data-name="Trazado 25849" d="M-2098.931-5329.588q-.464.615-.925,1.23" fill="none" stroke="#fbb040" stroke-linecap="round" stroke-linejoin="round" stroke-width="1"/>
              <path id="Trazado_25850" data-name="Trazado 25850" d="M-2090.782-5329.886a9.693,9.693,0,0,1,1.282,2.285" fill="none" stroke="#fbb040" stroke-linecap="round" stroke-linejoin="round" stroke-width="1"/>
              <path id="Trazado_25851" data-name="Trazado 25851" d="M-2095.529-5319.576l-.6,1.544" fill="none" stroke="#fbb040" stroke-linecap="round" stroke-linejoin="round" stroke-width="1"/>
              <path id="Trazado_25852" data-name="Trazado 25852" d="M-2113.693-5324.964q-.307.771-.616,1.54" fill="none" stroke="#fbb040" stroke-linecap="round" stroke-linejoin="round" stroke-width="1"/>
              <path id="Trazado_25853" data-name="Trazado 25853" d="M-2120.631-5331.739a4.679,4.679,0,0,0-1.393,1.379" fill="none" stroke="#fbb040" stroke-linecap="round" stroke-linejoin="round" stroke-width="1"/>
              <path id="Trazado_25854" data-name="Trazado 25854" d="M-2119.094-5325.892v2.463" fill="none" stroke="#fbb040" stroke-linecap="round" stroke-linejoin="round" stroke-width="1"/>
              <path id="Trazado_25855" data-name="Trazado 25855" d="M-2113.7-5331.9l.315,1.23" fill="none" stroke="#fbb040" stroke-linecap="round" stroke-linejoin="round" stroke-width="1"/>
              <path id="Trazado_25856" data-name="Trazado 25856" d="M-2111.1-5339.126q.306.54.61,1.08" fill="none" stroke="#fbb040" stroke-linecap="round" stroke-linejoin="round" stroke-width="1"/>
              <path id="Trazado_25857" data-name="Trazado 25857" d="M-2109.863-5333.9a4.855,4.855,0,0,1-.289,2.314" fill="none" stroke="#fbb040" stroke-linecap="round" stroke-linejoin="round" stroke-width="1"/>
              <path id="Trazado_25858" data-name="Trazado 25858" d="M-2106.006-5350.208a8.638,8.638,0,0,1,1.834-1.255" fill="none" stroke="#fbb040" stroke-linecap="round" stroke-linejoin="round" stroke-width="1"/>
              <path id="Trazado_25859" data-name="Trazado 25859" d="M-2096.922-5352.671a3.841,3.841,0,0,0-.644,1.375" fill="none" stroke="#fbb040" stroke-linecap="round" stroke-linejoin="round" stroke-width="1"/>
              <path id="Trazado_25860" data-name="Trazado 25860" d="M-2103.251-5345.9q-.155.691-.308,1.385" fill="none" stroke="#fbb040" stroke-linecap="round" stroke-linejoin="round" stroke-width="1"/>
              <path id="Trazado_25861" data-name="Trazado 25861" d="M-2096.3-5345.442a4.371,4.371,0,0,0,.589,1.705" fill="none" stroke="#fbb040" stroke-linecap="round" stroke-linejoin="round" stroke-width="1"/>
              <path id="Trazado_25862" data-name="Trazado 25862" d="M-2087.546-5339.439a5.957,5.957,0,0,1-.591,1.857" fill="none" stroke="#fbb040" stroke-linecap="round" stroke-linejoin="round" stroke-width="1"/>
              <path id="Trazado_25863" data-name="Trazado 25863" d="M-2100.468-5338.668l-.462,2" fill="none" stroke="#fbb040" stroke-linecap="round" stroke-linejoin="round" stroke-width="1"/>
              <path id="Trazado_25864" data-name="Trazado 25864" d="M-2093.388-5336.975v1.231" fill="none" stroke="#fbb040" stroke-linecap="round" stroke-linejoin="round" stroke-width="1"/>
              <path id="Trazado_25865" data-name="Trazado 25865" d="M-2089.694-5349.751l.308,1.232" fill="none" stroke="#fbb040" stroke-linecap="round" stroke-linejoin="round" stroke-width="1"/>
              <path id="Trazado_25866" data-name="Trazado 25866" d="M-2084.008-5352.667l.912,1.087" fill="none" stroke="#fbb040" stroke-linecap="round" stroke-linejoin="round" stroke-width="1"/>
              <path id="Trazado_25867" data-name="Trazado 25867" d="M-2082.452-5330.52l2.015,1.365" fill="none" stroke="#fbb040" stroke-linecap="round" stroke-linejoin="round" stroke-width="1"/>
              <path id="Trazado_25868" data-name="Trazado 25868" d="M-2085.23-5322.352v1.385" fill="none" stroke="#fbb040" stroke-linecap="round" stroke-linejoin="round" stroke-width="1"/>
              <path id="Trazado_25869" data-name="Trazado 25869" d="M-2090.64-5317.585q-.162.768-.323,1.536" fill="none" stroke="#fbb040" stroke-linecap="round" stroke-linejoin="round" stroke-width="1"/>
              <path id="Trazado_25870" data-name="Trazado 25870" d="M-2081.076-5336.354l1.688.931" fill="none" stroke="#fbb040" stroke-linecap="round" stroke-linejoin="round" stroke-width="1"/>
              <path id="Trazado_25871" data-name="Trazado 25871" d="M-2085.858-5332.492l1.685,1.091" fill="none" stroke="#fbb040" stroke-linecap="round" stroke-linejoin="round" stroke-width="1"/>
              <path id="Trazado_25872" data-name="Trazado 25872" d="M-2080.008-5319.121q-.079.847-.16,1.693" fill="none" stroke="#fbb040" stroke-linecap="round" stroke-linejoin="round" stroke-width="1"/>
              <path id="Trazado_25873" data-name="Trazado 25873" d="M-2085.838-5313.727a2.832,2.832,0,0,0-.489,1.534" fill="none" stroke="#fbb040" stroke-linecap="round" stroke-linejoin="round" stroke-width="1"/>
              <path id="Trazado_25874" data-name="Trazado 25874" d="M-2080.294-5346.988a5,5,0,0,0,1.507,1.28" fill="none" stroke="#fbb040" stroke-linecap="round" stroke-linejoin="round" stroke-width="1"/>
              <path id="Trazado_25875" data-name="Trazado 25875" d="M-2074.624-5349.133l.152,1.231" fill="none" stroke="#fbb040" stroke-linecap="round" stroke-linejoin="round" stroke-width="1"/>
              <path id="Trazado_25876" data-name="Trazado 25876" d="M-2071.838-5341.9l-.462,1.232" fill="none" stroke="#fbb040" stroke-linecap="round" stroke-linejoin="round" stroke-width="1"/>
              <path id="Trazado_25877" data-name="Trazado 25877" d="M-2066.593-5341.133a2.754,2.754,0,0,0,.579,1.254" fill="none" stroke="#fbb040" stroke-linecap="round" stroke-linejoin="round" stroke-width="1"/>
              <path id="Trazado_25878" data-name="Trazado 25878" d="M-2061.987-5347.134l.77.923" fill="none" stroke="#fbb040" stroke-linecap="round" stroke-linejoin="round" stroke-width="1"/>
              <path id="Trazado_25879" data-name="Trazado 25879" d="M-2055.83-5345.6q.078.694.154,1.386" fill="none" stroke="#fbb040" stroke-linecap="round" stroke-linejoin="round" stroke-width="1"/>
              <path id="Trazado_25880" data-name="Trazado 25880" d="M-2061.981-5344.058q.315.923.629,1.843" fill="none" stroke="#fbb040" stroke-linecap="round" stroke-linejoin="round" stroke-width="1"/>
              <path id="Trazado_25881" data-name="Trazado 25881" d="M-2068.595-5336.348l-.616.615" fill="none" stroke="#fbb040" stroke-linecap="round" stroke-linejoin="round" stroke-width="1"/>
              <path id="Trazado_25882" data-name="Trazado 25882" d="M-2070.756-5346.067l1.386.613" fill="none" stroke="#fbb040" stroke-linecap="round" stroke-linejoin="round" stroke-width="1"/>
              <path id="Trazado_25883" data-name="Trazado 25883" d="M-2086.76-5344.524q.543.766,1.085,1.534" fill="none" stroke="#fbb040" stroke-linecap="round" stroke-linejoin="round" stroke-width="1"/>
              <path id="Trazado_25884" data-name="Trazado 25884" d="M-2097.544-5312.808l-.769.615" fill="none" stroke="#fbb040" stroke-linecap="round" stroke-linejoin="round" stroke-width="1"/>
              <path id="Trazado_25885" data-name="Trazado 25885" d="M-2083.215-5326.061a3.148,3.148,0,0,0,2.142.8" fill="none" stroke="#fbb040" stroke-linecap="round" stroke-linejoin="round" stroke-width="1"/>
              <path id="Trazado_25886" data-name="Trazado 25886" d="M-2077.391-5324.659a3.9,3.9,0,0,1-.265,2.167" fill="none" stroke="#fbb040" stroke-linecap="round" stroke-linejoin="round" stroke-width="1"/>
              <path id="Trazado_25887" data-name="Trazado 25887" d="M-2105.386-5354.515a3.155,3.155,0,0,1,1.205-.824" fill="none" stroke="#fbb040" stroke-linecap="round" stroke-linejoin="round" stroke-width="1"/>
              <path id="Trazado_25888" data-name="Trazado 25888" d="M-2111.567-5343.3q.609-.7,1.219-1.4" fill="none" stroke="#fbb040" stroke-linecap="round" stroke-linejoin="round" stroke-width="1"/>
            </g>
          </g>
        </g>
        <g id="Grupo_9650" data-name="Grupo 9650">
          <g id="Grupo_9645" data-name="Grupo 9645">
            <path id="Trazado_25889" data-name="Trazado 25889" d="M-1902.064-5275.057c-.2-1.743-.259-3.673.813-5.061,1.646-2.129,5.2-1.726,7.172.1s2.769,4.568,3.483,7.164c-4.146-12.76-8.087-27.52-.961-38.888a7.287,7.287,0,0,1,3.311-3.163c2.2-.842,4.773.314,6.252,2.148a15.15,15.15,0,0,1,2.584,6.508,93.727,93.727,0,0,1,2.023,21.28,21.023,21.023,0,0,1,5.176-17.115l1.441,4.045a55.972,55.972,0,0,1,3.033-33.2c1.95-4.665,5.514-9.656,10.57-9.563,4.231.078,7.531,3.832,9.142,7.746,3.655,8.884,1.394,19.083-2.132,28.018a106.129,106.129,0,0,1-14.307,25.359c1.5-2.912,5.836-3.529,8.513-1.643s3.685,5.55,3.1,8.772a17.515,17.515,0,0,1-4.74,8.455,35.452,35.452,0,0,1-16.843,10.149C-1890.576-5249.66-1900.39-5260.284-1902.064-5275.057Z" fill="#7bb3e8"/>
            <path id="Trazado_25890" data-name="Trazado 25890" d="M-1886.317-5257.012s33.481-38.286,28.664-79.838" fill="none" stroke="#244e80" stroke-linecap="round" stroke-linejoin="round" stroke-width="0.85"/>
            <path id="Trazado_25891" data-name="Trazado 25891" d="M-1865.245-5326.653s2.318,11.344,6.117,15.722" fill="none" stroke="#244e80" stroke-linecap="round" stroke-linejoin="round" stroke-width="0.85"/>
            <path id="Trazado_25892" data-name="Trazado 25892" d="M-1862.313-5299.494s3.782,1.378,7.348-3.128" fill="none" stroke="#244e80" stroke-linecap="round" stroke-linejoin="round" stroke-width="0.85"/>
            <path id="Trazado_25893" data-name="Trazado 25893" d="M-1887.447-5309.457s-1.625,22.178,9.508,41.165" fill="none" stroke="#244e80" stroke-linecap="round" stroke-linejoin="round" stroke-width="0.85"/>
            <path id="Trazado_25894" data-name="Trazado 25894" d="M-1881.986-5262.515s12.383-.114,24.314-12.425" fill="none" stroke="#244e80" stroke-linecap="round" stroke-linejoin="round" stroke-width="0.85"/>
            <path id="Trazado_25895" data-name="Trazado 25895" d="M-1898.72-5278.226s5.133,15.075,14.093,19.161" fill="none" stroke="#244e80" stroke-linecap="round" stroke-linejoin="round" stroke-width="0.85"/>
            <path id="Trazado_25896" data-name="Trazado 25896" d="M-1885.831-5289.62s-5.61-2.38-7.046-12.19" fill="none" stroke="#244e80" stroke-linecap="round" stroke-linejoin="round" stroke-width="0.85"/>
            <path id="Trazado_25897" data-name="Trazado 25897" d="M-1869.453-5266.161s1.453,3.81,8.308.694" fill="none" stroke="#244e80" stroke-linecap="round" stroke-linejoin="round" stroke-width="0.85"/>
            <path id="Trazado_25898" data-name="Trazado 25898" d="M-1869.808-5282.062a30.724,30.724,0,0,1-3.808-14.63" fill="none" stroke="#244e80" stroke-linecap="round" stroke-linejoin="round" stroke-width="0.85"/>
          </g>
          <g id="Grupo_9648" data-name="Grupo 9648">
            <g id="Grupo_9647" data-name="Grupo 9647">
              <path id="Trazado_25899" data-name="Trazado 25899" d="M-2222.758-5392.495l3.925,7.155,8.819-4.987,4.779,4.987-.572-6.347,9.521-3.969-17.021-17.2Z" fill="#a7a9ac" style="mix-blend-mode: multiply;isolation: isolate"/>
              <g id="Grupo_9646" data-name="Grupo 9646">
                <path id="Trazado_25900" data-name="Trazado 25900" d="M-2203.926-5400.423v8.737l-7.5-7.936Z" fill="#fff"/>
                <path id="Trazado_25901" data-name="Trazado 25901" d="M-2205.806-5399.622l-29.527-23.791,14.073,27.757Z" fill="#fff"/>
                <path id="Trazado_25902" data-name="Trazado 25902" d="M-2235.333-5423.413l41.684,18.611-12.158,5.18Z" fill="#fff"/>
                <path id="Trazado_25903" data-name="Trazado 25903" d="M-2205.806-5399.622l1.881-.8-31.407-22.99Z" fill="#662d91"/>
              </g>
            </g>
            <path id="Trazado_25904" data-name="Trazado 25904" d="M-2202.239-5388.7c11.412,9.906,29.387,11.32,42.207,3.319,4.361-2.721,8.291-6.7,9.364-11.724s-1.641-11.034-6.635-12.253c-6.14-1.5-12.034,5.476-10.875,11.69s7.421,10.518,13.708,11.165,12.511-1.643,18.145-4.508c7.987-4.061,15.48-9.5,20.536-16.9s7.42-16.948,4.89-25.543" fill="none" stroke="#3d2b4f" stroke-linecap="round" stroke-linejoin="round" stroke-width="1" stroke-dasharray="0 0 2.835"/>
          </g>
          <g id="Grupo_9649" data-name="Grupo 9649">
            <path id="Trazado_25905" data-name="Trazado 25905" d="M-2160.99-5272.573a2.528,2.528,0,0,0-.8-1.7,2.466,2.466,0,0,0-2.053-.108,18.7,18.7,0,0,0-12.661,11.712,115.616,115.616,0,0,0-5.565-38.55,17.9,17.9,0,0,0-3.538-6.942c-1.794-1.909-4.659-3.041-7.1-2.091a8.565,8.565,0,0,0-3.937,3.9c-6.845,11.584-4.073,26.344.254,39.084a5.54,5.54,0,0,0-8.21-.585,5.539,5.539,0,0,0,1.132,8.153c-.674-2.479-3.1-4.024-5.419-5.133-5.428-2.594-12.7-3.8-16.837.563-4.468,4.709-2.1,12.746,2.329,17.5,6.152,6.6,15.312,9.74,24.313,10.371,8.722.611,22.053.8,28.773-5.833C-2162.9-5249.552-2159.211-5262.53-2160.99-5272.573Z" fill="#987fc9"/>
            <path id="Trazado_25906" data-name="Trazado 25906" d="M-2190.461-5308.3s12.4,46.965,0,68.066" fill="none" stroke="#244e80" stroke-linecap="round" stroke-linejoin="round" stroke-width="0.85"/>
            <path id="Trazado_25907" data-name="Trazado 25907" d="M-2219.973-5259.71s14.51,14.686,32.266,13.245" fill="none" stroke="#244e80" stroke-linecap="round" stroke-linejoin="round" stroke-width="0.85"/>
            <path id="Trazado_25908" data-name="Trazado 25908" d="M-2162.425-5271.685s-7.446,22.319-24.457,22.387" fill="none" stroke="#244e80" stroke-linecap="round" stroke-linejoin="round" stroke-width="0.85"/>
            <path id="Trazado_25909" data-name="Trazado 25909" d="M-2201.675-5266.2s8.627,11.546,15.749,12.266" fill="none" stroke="#244e80" stroke-linecap="round" stroke-linejoin="round" stroke-width="0.85"/>
            <path id="Trazado_25910" data-name="Trazado 25910" d="M-2196.068-5297.485s4.881,13.44,10.291,15.653" fill="none" stroke="#244e80" stroke-linecap="round" stroke-linejoin="round" stroke-width="0.85"/>
            <path id="Trazado_25911" data-name="Trazado 25911" d="M-2184.952-5266.2s2.9.988,4.82-5.482" fill="none" stroke="#244e80" stroke-linecap="round" stroke-linejoin="round" stroke-width="0.85"/>
            <path id="Trazado_25912" data-name="Trazado 25912" d="M-2220.858-5251.3a33.973,33.973,0,0,0,11.952,0" fill="none" stroke="#244e80" stroke-linecap="round" stroke-linejoin="round" stroke-width="0.85"/>
            <path id="Trazado_25913" data-name="Trazado 25913" d="M-2192.767-5257.126s-3.484,2.585-8.262,0" fill="none" stroke="#244e80" stroke-linecap="round" stroke-linejoin="round" stroke-width="0.85"/>
            <path id="Trazado_25914" data-name="Trazado 25914" d="M-2179.638-5250.775s2.9,3.184,10.13,1.477" fill="none" stroke="#244e80" stroke-linecap="round" stroke-linejoin="round" stroke-width="0.85"/>
          </g>
        </g>
      </g>
    </g>
  </g>
</svg>
